<?xml version="1.0" encoding="utf-8"?>
<!-- Generator: Adobe Illustrator 16.0.0, SVG Export Plug-In . SVG Version: 6.00 Build 0)  -->
<!DOCTYPE svg PUBLIC "-//W3C//DTD SVG 1.1//EN" "http://www.w3.org/Graphics/SVG/1.1/DTD/svg11.dtd">
<svg version="1.1" id="레이어_1" xmlns="http://www.w3.org/2000/svg" xmlns:xlink="http://www.w3.org/1999/xlink" x="0px"
	 y="0px" width="12.969px" height="14.992px" viewBox="0 0 12.969 14.992" enable-background="new 0 0 12.969 14.992"
	 xml:space="preserve">
<path d="M2.539,10.548c1.888,2.591,4.216,4.206,6.394,4.427c1.46,0.15,4.085-0.685,4.035-2.366c-0.024-0.881-0.837-1.486-1.43-2.079
	c-0.183-0.184-0.365-0.367-0.549-0.548c-1.509-1.496-2.433,0.539-4.001,0.072C6.104,9.789,5.61,8.91,5.08,8.268
	C4.604,7.696,4.058,6.995,4.165,6.236C4.36,4.864,6.797,4.632,5.983,2.863c-0.108-0.234-0.216-0.47-0.324-0.705
	C5.245,1.26,4.734-0.074,3.423,0.003C0.609,0.172-0.239,3.061,0.055,5.274c0.251,1.877,1.272,3.704,2.451,5.236
	C2.518,10.524,2.529,10.538,2.539,10.548z"/>
</svg>
